<svg width="20" height="19" viewBox="0 0 20 19" fill="none" xmlns="http://www.w3.org/2000/svg">
<path d="M12.3559 15.9037L14.1059 14.1537L15.8559 15.9037L16.6059 15.1537L14.8809 13.4287L16.6309 11.6787L15.8809 10.9287L14.1309 12.6787L12.3809 10.9287L11.6309 11.6787L13.3809 13.4287L11.6309 15.1787L12.3559 15.9037ZM0.130859 16.4287V10.4287L8.13086 8.42871L0.130859 6.42871V0.428711L14.4309 6.42871H14.1309C12.1809 6.42871 10.5267 7.11621 9.16836 8.49121C7.81003 9.86621 7.13086 11.5287 7.13086 13.4787L0.130859 16.4287ZM14.1309 18.4287C12.7475 18.4287 11.5684 17.9412 10.5934 16.9662C9.61836 15.9912 9.13086 14.812 9.13086 13.4287C9.13086 12.0454 9.61836 10.8662 10.5934 9.89121C11.5684 8.91621 12.7475 8.42871 14.1309 8.42871C15.5142 8.42871 16.6934 8.91621 17.6684 9.89121C18.6434 10.8662 19.1309 12.0454 19.1309 13.4287C19.1309 14.812 18.6434 15.9912 17.6684 16.9662C16.6934 17.9412 15.5142 18.4287 14.1309 18.4287Z" fill="white"/>
</svg>
