<svg width="21" height="17" viewBox="0 0 21 17" fill="none" xmlns="http://www.w3.org/2000/svg">
<path d="M2.13086 16.0815C1.58086 16.0815 1.11003 15.8857 0.718359 15.494C0.326693 15.1024 0.130859 14.6315 0.130859 14.0815V2.08154C0.130859 1.53154 0.326693 1.06071 0.718359 0.669043C1.11003 0.277376 1.58086 0.081543 2.13086 0.081543H18.1309C18.6809 0.081543 19.1517 0.277376 19.5434 0.669043C19.935 1.06071 20.1309 1.53154 20.1309 2.08154V14.0815C20.1309 14.6315 19.935 15.1024 19.5434 15.494C19.1517 15.8857 18.6809 16.0815 18.1309 16.0815H2.13086ZM2.13086 4.08154H18.1309V2.08154H2.13086V4.08154ZM9.08086 12.6315L14.7309 6.98154L13.2809 5.53154L9.08086 9.73154L6.98086 7.63154L5.53086 9.08154L9.08086 12.6315Z" fill="white"/>
</svg>
