<svg width="24" height="22" viewBox="0 0 24 22" fill="none" xmlns="http://www.w3.org/2000/svg">
<g filter="url(#filter0_d_1_553)">
<path d="M12 20C10.6167 20 9.31667 19.7375 8.1 19.2125C6.88333 18.6875 5.825 17.975 4.925 17.075C4.025 16.175 3.3125 15.1167 2.7875 13.9C2.2625 12.6833 2 11.3833 2 10C2 8.61667 2.2625 7.31667 2.7875 6.1C3.3125 4.88333 4.025 3.825 4.925 2.925C5.825 2.025 6.88333 1.3125 8.1 0.7875C9.31667 0.2625 10.6167 0 12 0C13.3833 0 14.6833 0.2625 15.9 0.7875C17.1167 1.3125 18.175 2.025 19.075 2.925C19.975 3.825 20.6875 4.88333 21.2125 6.1C21.7375 7.31667 22 8.61667 22 10C22 10.45 21.975 10.8917 21.925 11.325C21.875 11.7583 21.7917 12.1833 21.675 12.6C21.4417 12.3333 21.1708 12.1083 20.8625 11.925C20.5542 11.7417 20.2167 11.6167 19.85 11.55C19.9 11.3 19.9375 11.0458 19.9625 10.7875C19.9875 10.5292 20 10.2667 20 10C20 7.76667 19.225 5.875 17.675 4.325C16.125 2.775 14.2333 2 12 2C9.76667 2 7.875 2.775 6.325 4.325C4.775 5.875 4 7.76667 4 10C4 12.2333 4.775 14.125 6.325 15.675C7.875 17.225 9.76667 18 12 18C12.85 18 13.6625 17.875 14.4375 17.625C15.2125 17.375 15.925 17.025 16.575 16.575C16.775 16.8583 17.0208 17.1083 17.3125 17.325C17.6042 17.5417 17.9167 17.7083 18.25 17.825C17.4 18.5083 16.4458 19.0417 15.3875 19.425C14.3292 19.8083 13.2 20 12 20ZM19.25 16C18.9 16 18.6042 15.8792 18.3625 15.6375C18.1208 15.3958 18 15.1 18 14.75C18 14.4 18.1208 14.1042 18.3625 13.8625C18.6042 13.6208 18.9 13.5 19.25 13.5C19.6 13.5 19.8958 13.6208 20.1375 13.8625C20.3792 14.1042 20.5 14.4 20.5 14.75C20.5 15.1 20.3792 15.3958 20.1375 15.6375C19.8958 15.8792 19.6 16 19.25 16ZM15.3 14.7L11 10.4V5H13V9.6L16.7 13.3L15.3 14.7Z" fill="#1C1B1F"/>
</g>
<defs>
<filter id="filter0_d_1_553" x="-2" y="0" width="28" height="28" filterUnits="userSpaceOnUse" color-interpolation-filters="sRGB">
<feFlood flood-opacity="0" result="BackgroundImageFix"/>
<feColorMatrix in="SourceAlpha" type="matrix" values="0 0 0 0 0 0 0 0 0 0 0 0 0 0 0 0 0 0 127 0" result="hardAlpha"/>
<feOffset dy="4"/>
<feGaussianBlur stdDeviation="2"/>
<feComposite in2="hardAlpha" operator="out"/>
<feColorMatrix type="matrix" values="0 0 0 0 0 0 0 0 0 0 0 0 0 0 0 0 0 0 0.25 0"/>
<feBlend mode="normal" in2="BackgroundImageFix" result="effect1_dropShadow_1_553"/>
<feBlend mode="normal" in="SourceGraphic" in2="effect1_dropShadow_1_553" result="shape"/>
</filter>
</defs>
</svg>
