<svg width="32" height="33" viewBox="0 0 32 33" fill="none" xmlns="http://www.w3.org/2000/svg">
<mask id="mask0_1_11091" style="mask-type:luminance" maskUnits="userSpaceOnUse" x="0" y="0" width="32" height="33">
<rect y="0.401367" width="32" height="32" fill="white"/>
</mask>
<g mask="url(#mask0_1_11091)">
<path d="M13.6704 8.24756L14.0416 13.7675L14.2259 16.5419C14.2279 16.8272 14.2725 17.1107 14.3588 17.3831C14.5813 17.9119 15.1168 18.2479 15.6993 18.2244L24.5756 17.6438C24.96 17.6375 25.3312 17.7812 25.6075 18.0435C25.8377 18.262 25.9864 18.5479 26.0333 18.8554L26.0491 19.042C25.6817 24.1283 21.9461 28.3707 16.8704 29.4658C11.7946 30.5608 6.58967 28.2475 4.08147 23.7816C3.35837 22.4842 2.90672 21.0582 2.75303 19.5871C2.68883 19.1516 2.66056 18.7118 2.66849 18.2718C2.66056 12.8187 6.54382 8.10438 11.9796 6.96786C12.6339 6.86598 13.2752 7.21233 13.5376 7.80914C13.6055 7.94736 13.6503 8.09538 13.6704 8.24756Z" fill="white"/>
<path opacity="0.4" d="M29.3335 13.4847L29.3242 13.5282L29.2973 13.5914L29.301 13.7649C29.2871 13.9946 29.1983 14.2157 29.0455 14.3944C28.8862 14.5804 28.6686 14.707 28.429 14.7562L28.2829 14.7762L18.0418 15.4398C17.7011 15.4734 17.3619 15.3636 17.1087 15.1377C16.8975 14.9493 16.7626 14.6952 16.7245 14.4213L16.0371 4.19511C16.0251 4.16053 16.0251 4.12305 16.0371 4.08847C16.0465 3.80659 16.1706 3.54015 16.3817 3.34867C16.5926 3.15719 16.8731 3.05663 17.1602 3.06945C23.2401 3.22413 28.3499 7.59608 29.3335 13.4847Z" fill="white"/>
</g>
</svg>
