<svg width="32" height="33" viewBox="0 0 32 33" fill="none" xmlns="http://www.w3.org/2000/svg">
<mask id="mask0_1_11098" style="mask-type:alpha" maskUnits="userSpaceOnUse" x="0" y="0" width="32" height="33">
<rect y="0.401367" width="32" height="32" fill="#D9D9D9"/>
</mask>
<g mask="url(#mask0_1_11098)">
<path d="M1.33333 29.5672V25.7839C1.33333 25.0182 1.52777 24.3145 1.91666 23.6727C2.30555 23.0309 2.82222 22.541 3.46666 22.2032C4.84444 21.5051 6.24444 20.9816 7.66666 20.6325C9.08888 20.2834 10.5333 20.1089 12 20.1089C13.4667 20.1089 14.9111 20.2834 16.3333 20.6325C17.7556 20.9816 19.1556 21.5051 20.5333 22.2032C21.1778 22.541 21.6944 23.0309 22.0833 23.6727C22.4722 24.3145 22.6667 25.0182 22.6667 25.7839V29.5672H1.33333ZM25.3333 29.5672V25.5137C25.3333 24.5228 25.0611 23.5713 24.5167 22.6593C23.9722 21.7472 23.2 20.9647 22.2 20.3116C23.3333 20.4467 24.4 20.6775 25.4 21.0041C26.4 21.3306 27.3333 21.7303 28.2 22.2032C29 22.6536 29.6111 23.1547 30.0333 23.7064C30.4556 24.2582 30.6667 24.8606 30.6667 25.5137V29.5672H25.3333ZM12 18.7577C10.5333 18.7577 9.27777 18.2285 8.23333 17.1701C7.18888 16.1117 6.66666 14.8393 6.66666 13.353C6.66666 11.8667 7.18888 10.5943 8.23333 9.53589C9.27777 8.47746 10.5333 7.94824 12 7.94824C13.4667 7.94824 14.7222 8.47746 15.7667 9.53589C16.8111 10.5943 17.3333 11.8667 17.3333 13.353C17.3333 14.8393 16.8111 16.1117 15.7667 17.1701C14.7222 18.2285 13.4667 18.7577 12 18.7577ZM25.3333 13.353C25.3333 14.8393 24.8111 16.1117 23.7667 17.1701C22.7222 18.2285 21.4667 18.7577 20 18.7577C19.7556 18.7577 19.4444 18.7296 19.0667 18.6733C18.6889 18.617 18.3778 18.555 18.1333 18.4875C18.7333 17.7669 19.1944 16.9674 19.5167 16.0891C19.8389 15.2109 20 14.2988 20 13.353C20 12.4072 19.8389 11.4951 19.5167 10.6168C19.1944 9.73856 18.7333 8.93911 18.1333 8.21848C18.4444 8.10588 18.7556 8.03269 19.0667 7.99891C19.3778 7.96513 19.6889 7.94824 20 7.94824C21.4667 7.94824 22.7222 8.47746 23.7667 9.53589C24.8111 10.5943 25.3333 11.8667 25.3333 13.353ZM3.99999 26.8648H20V25.7839C20 25.5362 19.9389 25.311 19.8167 25.1083C19.6944 24.9056 19.5333 24.748 19.3333 24.6354C18.1333 24.0274 16.9222 23.5713 15.7 23.2673C14.4778 22.9633 13.2444 22.8113 12 22.8113C10.7556 22.8113 9.52222 22.9633 8.29999 23.2673C7.07777 23.5713 5.86666 24.0274 4.66666 24.6354C4.46666 24.748 4.30555 24.9056 4.18333 25.1083C4.06111 25.311 3.99999 25.5362 3.99999 25.7839V26.8648ZM12 16.0554C12.7333 16.0554 13.3611 15.7907 13.8833 15.2615C14.4056 14.7323 14.6667 14.0961 14.6667 13.353C14.6667 12.6098 14.4056 11.9736 13.8833 11.4444C13.3611 10.9152 12.7333 10.6506 12 10.6506C11.2667 10.6506 10.6389 10.9152 10.1167 11.4444C9.59444 11.9736 9.33333 12.6098 9.33333 13.353C9.33333 14.0961 9.59444 14.7323 10.1167 15.2615C10.6389 15.7907 11.2667 16.0554 12 16.0554Z" fill="white"/>
</g>
</svg>
