<svg width="32" height="33" viewBox="0 0 32 33" fill="none" xmlns="http://www.w3.org/2000/svg">
<path d="M16 11.0684C17.4145 11.0684 18.771 11.6303 19.7712 12.6305C20.7714 13.6307 21.3333 14.9872 21.3333 16.4017C21.3333 17.8162 20.7714 19.1727 19.7712 20.1729C18.771 21.1731 17.4145 21.735 16 21.735C14.5855 21.735 13.229 21.1731 12.2288 20.1729C11.2286 19.1727 10.6667 17.8162 10.6667 16.4017C10.6667 14.9872 11.2286 13.6307 12.2288 12.6305C13.229 11.6303 14.5855 11.0684 16 11.0684ZM16 13.735C15.2928 13.735 14.6145 14.016 14.1144 14.5161C13.6143 15.0162 13.3333 15.6944 13.3333 16.4017C13.3333 17.1089 13.6143 17.7872 14.1144 18.2873C14.6145 18.7874 15.2928 19.0684 16 19.0684C16.7072 19.0684 17.3855 18.7874 17.8856 18.2873C18.3857 17.7872 18.6667 17.1089 18.6667 16.4017C18.6667 15.6944 18.3857 15.0162 17.8856 14.5161C17.3855 14.016 16.7072 13.735 16 13.735ZM13.3333 29.735C13 29.735 12.72 29.495 12.6667 29.175L12.1733 25.6417C11.3333 25.3084 10.6133 24.855 9.92 24.3217L6.6 25.6684C6.30667 25.775 5.94667 25.6684 5.78667 25.375L3.12 20.7617C3.0384 20.6243 3.00963 20.4619 3.03908 20.3049C3.06852 20.1478 3.15417 20.0068 3.28 19.9084L6.09334 17.695L6 16.4017L6.09334 15.0684L3.28 12.895C3.15417 12.7965 3.06852 12.6556 3.03908 12.4985C3.00963 12.3415 3.0384 12.1791 3.12 12.0417L5.78667 7.42836C5.94667 7.13503 6.30667 7.01503 6.6 7.13503L9.92 8.46836C10.6133 7.94836 11.3333 7.49503 12.1733 7.16169L12.6667 3.62836C12.72 3.30836 13 3.06836 13.3333 3.06836H18.6667C19 3.06836 19.28 3.30836 19.3333 3.62836L19.8267 7.16169C20.6667 7.49503 21.3867 7.94836 22.08 8.46836L25.4 7.13503C25.6933 7.01503 26.0533 7.13503 26.2133 7.42836L28.88 12.0417C29.0533 12.335 28.9733 12.695 28.72 12.895L25.9067 15.0684L26 16.4017L25.9067 17.735L28.72 19.9084C28.9733 20.1084 29.0533 20.4684 28.88 20.7617L26.2133 25.375C26.0533 25.6684 25.6933 25.7884 25.4 25.6684L22.08 24.335C21.3867 24.855 20.6667 25.3084 19.8267 25.6417L19.3333 29.175C19.28 29.495 19 29.735 18.6667 29.735H13.3333ZM15 5.73503L14.5067 9.21503C12.9067 9.54836 11.4933 10.4017 10.4667 11.5884L7.25334 10.2017L6.25334 11.935L9.06667 14.0017C8.53334 15.5572 8.53334 17.2461 9.06667 18.8017L6.24 20.8817L7.24 22.615L10.48 21.2284C11.5067 22.4017 12.9067 23.255 14.4933 23.575L14.9867 27.0684H17.0133L17.5067 23.5884C19.0933 23.255 20.4933 22.4017 21.52 21.2284L24.76 22.615L25.76 20.8817L22.9333 18.815C23.4667 17.255 23.4667 15.5617 22.9333 14.0017L25.7467 11.935L24.7467 10.2017L21.5333 11.5884C20.4856 10.3755 19.0644 9.54526 17.4933 9.22836L17 5.73503H15Z" fill="white"/>
</svg>
