<svg width="32" height="33" viewBox="0 0 32 33" fill="none" xmlns="http://www.w3.org/2000/svg">
<mask id="mask0_1_11108" style="mask-type:alpha" maskUnits="userSpaceOnUse" x="0" y="0" width="32" height="33">
<rect y="0.401367" width="32" height="32" fill="#D9D9D9"/>
</mask>
<g mask="url(#mask0_1_11108)">
<path d="M16 16.401C14.5333 16.401 13.2778 15.8788 12.2333 14.8344C11.1889 13.7899 10.6667 12.5344 10.6667 11.0677C10.6667 9.60104 11.1889 8.34549 12.2333 7.30104C13.2778 6.2566 14.5333 5.73438 16 5.73438C17.4667 5.73438 18.7222 6.2566 19.7667 7.30104C20.8111 8.34549 21.3333 9.60104 21.3333 11.0677C21.3333 12.5344 20.8111 13.7899 19.7667 14.8344C18.7222 15.8788 17.4667 16.401 16 16.401ZM5.33333 27.0677V23.3344C5.33333 22.5788 5.52777 21.8844 5.91666 21.251C6.30555 20.6177 6.82222 20.1344 7.46666 19.801C8.84444 19.1122 10.2444 18.5955 11.6667 18.251C13.0889 17.9066 14.5333 17.7344 16 17.7344C17.4667 17.7344 18.9111 17.9066 20.3333 18.251C21.7556 18.5955 23.1556 19.1122 24.5333 19.801C25.1778 20.1344 25.6944 20.6177 26.0833 21.251C26.4722 21.8844 26.6667 22.5788 26.6667 23.3344V27.0677H5.33333ZM7.99999 24.401H24V23.3344C24 23.0899 23.9389 22.8677 23.8167 22.6677C23.6944 22.4677 23.5333 22.3122 23.3333 22.201C22.1333 21.601 20.9222 21.151 19.7 20.851C18.4778 20.551 17.2444 20.401 16 20.401C14.7556 20.401 13.5222 20.551 12.3 20.851C11.0778 21.151 9.86666 21.601 8.66666 22.201C8.46666 22.3122 8.30555 22.4677 8.18333 22.6677C8.06111 22.8677 7.99999 23.0899 7.99999 23.3344V24.401ZM16 13.7344C16.7333 13.7344 17.3611 13.4733 17.8833 12.951C18.4056 12.4288 18.6667 11.801 18.6667 11.0677C18.6667 10.3344 18.4056 9.7066 17.8833 9.18438C17.3611 8.66215 16.7333 8.40104 16 8.40104C15.2667 8.40104 14.6389 8.66215 14.1167 9.18438C13.5944 9.7066 13.3333 10.3344 13.3333 11.0677C13.3333 11.801 13.5944 12.4288 14.1167 12.951C14.6389 13.4733 15.2667 13.7344 16 13.7344Z" fill="white"/>
</g>
</svg>
