<svg width="32" height="33" viewBox="0 0 32 33" fill="none" xmlns="http://www.w3.org/2000/svg">
<path fill-rule="evenodd" clip-rule="evenodd" d="M21.7747 22.6032L26.3371 17.2798C26.555 17.0313 26.6665 16.7175 26.6666 16.4021C26.6667 16.1863 26.6147 15.9697 26.5091 15.7727C26.4621 15.6849 26.4047 15.6015 26.3371 15.5244L21.7747 10.201C21.2955 9.64192 20.4538 9.57712 19.8947 10.0563C19.3356 10.5355 19.2708 11.3772 19.75 11.9364L22.4345 15.0687L12.1083 15.0687C11.3719 15.0687 10.775 15.6657 10.775 16.402C10.775 17.1384 11.3719 17.7354 12.1083 17.7354L22.4347 17.7354L19.75 20.8679C19.2708 21.427 19.3356 22.2687 19.8947 22.7479C20.4538 23.2271 21.2955 23.1623 21.7747 22.6032ZM13.3333 8.40202C14.0697 8.40202 14.6666 8.99897 14.6666 9.73535L14.6666 11.7354C14.6666 12.4717 15.2636 13.0687 16 13.0687C16.7363 13.0687 17.3333 12.4717 17.3333 11.7354L17.3333 9.73535C17.3333 7.52621 15.5424 5.73535 13.3333 5.73535L9.33329 5.73535C7.12415 5.73535 5.33329 7.52621 5.33329 9.73535L5.33329 23.0687C5.33329 25.2778 7.12415 27.0687 9.33329 27.0687L13.3333 27.0687C15.5424 27.0687 17.3333 25.2778 17.3333 23.0687L17.3333 21.0687C17.3333 20.3323 16.7363 19.7354 16 19.7354C15.2636 19.7354 14.6666 20.3323 14.6666 21.0687L14.6666 23.0687C14.6666 23.8051 14.0697 24.402 13.3333 24.402L9.33329 24.402C8.59691 24.402 7.99996 23.8051 7.99996 23.0687L7.99996 9.73535C7.99996 8.99897 8.59691 8.40202 9.33329 8.40202L13.3333 8.40202Z" fill="white"/>
</svg>
